<svg xmlns="http://www.w3.org/2000/svg" xmlns:xlink="http://www.w3.org/1999/xlink" viewBox="0 0 206.01 220.05"><defs><style>.cls-1{isolation:isolate;}.cls-2,.cls-3{fill:#e3e0ff;}.cls-2,.cls-3,.cls-4{fill-rule:evenodd;}.cls-14,.cls-15,.cls-17,.cls-2,.cls-7{mix-blend-mode:multiply;}.cls-11,.cls-4{fill:#fff;}.cls-5{fill:#3fb2ce;}.cls-6{fill:url(#Degradado_sin_nombre_143);}.cls-7{fill:#ccc;}.cls-18,.cls-8,.cls-9{fill:none;stroke-miterlimit:10;}.cls-8{stroke:#463193;stroke-width:2px;}.cls-9{stroke:#3fb2ce;stroke-width:1.5px;}.cls-10{fill:#4181b1;}.cls-12{fill:#335ba7;}.cls-13,.cls-14{fill:#d0ecf4;opacity:0.5;}.cls-15{fill:#2d6796;opacity:0.3;}.cls-16{fill:url(#Degradado_sin_nombre_143-2);}.cls-17{fill:#b3b3b3;}.cls-18{stroke:#fff;stroke-width:3px;}</style><linearGradient id="Degradado_sin_nombre_143" x1="101.51" y1="125.53" x2="178.44" y2="125.53" gradientUnits="userSpaceOnUse"><stop offset="0" stop-color="#602fda"/><stop offset="1" stop-color="#7e4fd6"/></linearGradient><linearGradient id="Degradado_sin_nombre_143-2" x1="33.1" y1="135.42" x2="78.37" y2="135.42" gradientTransform="translate(147.79 21.54) rotate(61.32)" xlink:href="#Degradado_sin_nombre_143"/></defs><g class="cls-1"><g id="Layer_2" data-name="Layer 2"><g id="Texto"><path class="cls-2" d="M206,80a69.05,69.05,0,0,0-137.38-10A58.94,58.94,0,1,0,70.73,186a70.84,70.84,0,0,0,124-68.21A68.7,68.7,0,0,0,206,80Z"/><polygon class="cls-3" points="74.46 196.64 74.46 202.35 74.46 208.07 69.52 205.21 64.57 202.35 69.52 199.5 74.46 196.64"/><polygon class="cls-3" points="32.32 54.69 34.69 58.79 37.05 62.89 32.32 62.89 27.58 62.89 29.95 58.79 32.32 54.69"/><polygon class="cls-4" points="158.83 45.67 157.59 50.27 156.36 54.88 152.99 51.51 149.61 48.14 154.22 46.9 158.83 45.67"/><polygon class="cls-3" points="110.81 0 113.18 4.1 115.55 8.2 110.81 8.2 106.07 8.2 108.44 4.1 110.81 0"/><polygon class="cls-4" points="136.77 189.41 135.85 192.87 134.92 196.32 132.39 193.8 129.86 191.27 133.32 190.34 136.77 189.41"/><rect class="cls-5" x="101.61" y="58.96" width="76.71" height="132.75" rx="3.86"/><rect class="cls-6" x="101.51" y="68.57" width="76.93" height="113.91"/><polygon class="cls-7" points="101.51 68.57 101.51 182.48 178.44 182.48 101.51 68.57"/><line class="cls-8" x1="131.38" y1="63.95" x2="144.23" y2="63.95"/><line class="cls-8" x1="145.49" y1="63.95" x2="148.57" y2="63.95"/><path class="cls-9" d="M149.1,122.54a1.73,1.73,0,0,0-1.22-1.41l-3.56-1.21-1.51-.56A8.11,8.11,0,0,1,140,120.5a8.11,8.11,0,0,1-2.84-1.14l-1.52.56-3.56,1.21a1.72,1.72,0,0,0-1.21,1.41l-1.12,6.13h20.5Z"/><path class="cls-9" d="M145.39,111.36c-.07,3.68-2.55,6.61-5.54,6.56s-5.37-3.08-5.3-6.76,2.55-6.61,5.55-6.55S145.46,107.69,145.39,111.36Z"/><path class="cls-9" d="M157.94,117.45a18,18,0,1,1-18-18A18,18,0,0,1,157.94,117.45Z"/><rect class="cls-5" x="128.5" y="142.96" width="22.94" height="8.61"/><rect class="cls-10" x="128.5" y="147.27" width="22.94" height="4.31"/><path class="cls-11" d="M132.22,145.4h.49l.34,2.45.41-2.45h.45l-.69,3.31h-.34Z"/><path class="cls-11" d="M134.15,145.4h.42v3.31h-.42Z"/><path class="cls-11" d="M135.12,145.4h1.2v.42h-.76v1h.66v.38h-.66v1.14h.76v.41h-1.2Z"/><path class="cls-11" d="M137.32,148.71h-.38l-.59-3.31h.45l.35,2.48.34-2.48h.35l.37,2.45.31-2.45H139l-.58,3.31H138l-.35-2.45Z"/><path class="cls-11" d="M140.21,145.4h.38l.49,2.41.41-2.41h.41l.31,3.31h-.45l-.1-2.28-.41,2.28h-.31l-.45-2.28-.11,2.28h-.44Z"/><path class="cls-11" d="M143.31,145.4a.69.69,0,0,1,.65.43,3,3,0,0,1,.21,1.3,3.58,3.58,0,0,1-.16,1.18.63.63,0,0,1-.63.47.75.75,0,0,1-.65-.36,2.38,2.38,0,0,1-.25-1.26,4,4,0,0,1,.17-1.26.64.64,0,0,1,.66-.49Zm0,.42c-.15,0-.26.12-.3.36a4.41,4.41,0,0,0-.08.88,3.05,3.05,0,0,0,.12,1q.12.3.3.3c.13,0,.23-.11.29-.33a4.23,4.23,0,0,0,.09-1,3,3,0,0,0-.11-1c-.07-.18-.17-.28-.31-.28Z"/><path class="cls-11" d="M144.62,145.4h.58a.81.81,0,0,1,.62.2,1,1,0,0,1,.18.67,1.15,1.15,0,0,1-.12.55.49.49,0,0,1-.33.27l.62,1.62h-.49l-.62-1.69v1.69h-.44Zm.81,1.32a.78.78,0,0,0,.08-.42,1,1,0,0,0-.06-.39.29.29,0,0,0-.29-.13h-.1v1.09C145.25,146.87,145.38,146.82,145.43,146.72Z"/><path class="cls-11" d="M146.44,145.4h1.21v.42h-.76v1h.65v.38h-.65v1.14h.76v.41h-1.21Z"/><rect class="cls-12" x="64.48" y="100.87" width="14.84" height="9.99" transform="translate(-55.49 118.14) rotate(-61.32)"/><path class="cls-13" d="M122.36,80.41A32.05,32.05,0,1,1,109.62,36.9,32.05,32.05,0,0,1,122.36,80.41Z"/><path class="cls-14" d="M88.83,33.43A32.05,32.05,0,1,0,99.77,96.59C95.82,75.6,92.54,54.48,88.83,33.43Z"/><path class="cls-5" d="M114.26,28.43A41.71,41.71,0,1,0,130.83,85,41.71,41.71,0,0,0,114.26,28.43ZM78.86,93.15a32.06,32.06,0,1,1,43.5-12.74A32.05,32.05,0,0,1,78.86,93.15Z"/><path class="cls-15" d="M114.26,28.43A41.71,41.71,0,1,0,130.83,85,41.71,41.71,0,0,0,114.26,28.43ZM76.41,97.63a37.16,37.16,0,1,1,50.44-14.77A37.15,37.15,0,0,1,76.41,97.63Z"/><rect class="cls-16" x="27.64" y="124.99" width="56.19" height="20.86" transform="translate(-89.82 119.33) rotate(-61.32)"/><polygon class="cls-17" points="42.54 153.86 66.83 109.46 60.07 105.76 33.1 155.06 51.4 165.07 54.08 160.17 42.54 153.86"/><path class="cls-18" d="M113.85,81.28A27,27,0,0,1,110,85.47"/><path class="cls-18" d="M105.21,41.84a26.76,26.76,0,0,1,10.64,36.32"/><path class="cls-2" d="M206,80a69.05,69.05,0,0,0-137.38-10A58.94,58.94,0,1,0,70.73,186a70.84,70.84,0,0,0,124-68.21A68.7,68.7,0,0,0,206,80Z"/></g></g></g></svg>