<svg xmlns="http://www.w3.org/2000/svg" viewBox="0 0 37.75 37.75"><defs><style>.cls-1{fill:#2ec5f9;}</style></defs><g id="Layer_2" data-name="Layer 2"><g id="Texto"><path class="cls-1" d="M18.61,16.73a.36.36,0,0,0,.54,0c1.67-1.34,3.35-2.66,5-4l1.93-1.53H11.65l.26.21Z"/><path class="cls-1" d="M19.11,20.64a.32.32,0,0,1-.47,0l-7.08-5.45L9.68,13.74v12.8H28.07V13.75l-.3.22Q23.44,17.3,19.11,20.64Z"/><path class="cls-1" d="M18.87,0A18.88,18.88,0,1,0,37.75,18.87,18.87,18.87,0,0,0,18.87,0Zm12.3,25.63a2.31,2.31,0,0,1-2.46,2.46H9a2.3,2.3,0,0,1-2.46-2.46V12.12A2.3,2.3,0,0,1,9,9.66H28.7a2.32,2.32,0,0,1,2.47,2.46Z"/></g></g></svg>