<svg xmlns="http://www.w3.org/2000/svg" xmlns:xlink="http://www.w3.org/1999/xlink" viewBox="0 0 210.74 190.84"><defs><style>.cls-1{isolation:isolate;}.cls-2,.cls-4{fill:#e3e0ff;}.cls-2,.cls-3,.cls-4{fill-rule:evenodd;}.cls-11,.cls-2{mix-blend-mode:multiply;}.cls-10,.cls-3,.cls-8{fill:#fff;}.cls-5{fill:url(#Degradado_sin_nombre_143);}.cls-6{fill:url(#Degradado_sin_nombre_143-2);}.cls-7{fill:#00cfe7;}.cls-9{fill:url(#Degradado_sin_nombre_143-3);}.cls-10{opacity:0.3;mix-blend-mode:soft-light;}.cls-11{fill:#ccc;}.cls-12{fill:url(#Degradado_sin_nombre_143-4);}</style><linearGradient id="Degradado_sin_nombre_143" x1="38.74" y1="103.26" x2="157.63" y2="103.26" gradientUnits="userSpaceOnUse"><stop offset="0" stop-color="#602fda"/><stop offset="1" stop-color="#7e4fd6"/></linearGradient><linearGradient id="Degradado_sin_nombre_143-2" x1="29.46" y1="50.98" x2="166.91" y2="50.98" xlink:href="#Degradado_sin_nombre_143"/><linearGradient id="Degradado_sin_nombre_143-3" x1="134.42" y1="24.99" x2="175.1" y2="24.99" xlink:href="#Degradado_sin_nombre_143"/><linearGradient id="Degradado_sin_nombre_143-4" x1="139.96" y1="42.04" x2="148.96" y2="42.04" xlink:href="#Degradado_sin_nombre_143"/></defs><g class="cls-1"><g id="Layer_2" data-name="Layer 2"><g id="Texto"><path class="cls-2" d="M152,24a58.4,58.4,0,0,0-20.16,3.57A76.77,76.77,0,1,0,31.51,143.06a58.69,58.69,0,0,0,115.65-1.87c1.61.14,3.24.22,4.88.22A58.69,58.69,0,1,0,152,24Z"/><path class="cls-3" d="M33.47,48.42h0a3.1,3.1,0,1,1-3.1,3.1,3.09,3.09,0,0,1,3.1-3.1m4.69,5.42a1.54,1.54,0,1,1-1.54,1.54A1.54,1.54,0,0,1,38.16,53.84Z"/><polygon class="cls-4" points="154.32 4.88 150.1 7.31 145.88 9.76 145.88 4.88 145.88 0 150.1 2.44 154.32 4.88"/><polygon class="cls-4" points="182.16 146.3 182.16 152.84 182.16 159.38 176.49 156.11 170.82 152.84 176.49 149.57 182.16 146.3"/><path class="cls-3" d="M194.22,95.22h0a3.1,3.1,0,1,0,3.09,3.1,3.1,3.1,0,0,0-3.09-3.1m-4.69,5.42a1.54,1.54,0,1,0,1.53,1.54A1.54,1.54,0,0,0,189.53,100.64Z"/><path class="cls-4" d="M33.07,5.79A2.81,2.81,0,1,0,30.27,3a2.81,2.81,0,0,0,2.8,2.8"/><polygon class="cls-4" points="23.58 145.9 18.5 148.83 13.42 151.76 13.42 145.9 13.42 140.03 18.5 142.97 23.58 145.9"/><polygon class="cls-3" points="170.08 103.08 170.08 106.9 170.08 110.72 166.77 108.81 163.46 106.9 166.77 104.99 170.08 103.08"/><polygon class="cls-3" points="26.1 105.59 26.1 109.42 26.1 113.24 22.79 111.33 19.48 109.42 22.79 107.51 26.1 105.59"/><rect class="cls-5" x="38.74" y="64.59" width="118.89" height="77.34"/><polygon class="cls-6" points="166.91 68.89 166.91 74.61 29.46 74.61 29.46 68.89 98.44 27.35 166.91 68.89"/><path class="cls-7" d="M85.58,89.93A11.74,11.74,0,1,1,73.84,78.19,11.74,11.74,0,0,1,85.58,89.93Z"/><path class="cls-7" d="M48,156.26H99.68V130.58a25.84,25.84,0,0,0-25.84-25.85h0A25.85,25.85,0,0,0,48,130.58Z"/><path class="cls-7" d="M134.28,89.93a11.74,11.74,0,1,1-11.74-11.74A11.74,11.74,0,0,1,134.28,89.93Z"/><path class="cls-7" d="M96.69,156.26h51.69V130.58a25.84,25.84,0,0,0-25.84-25.85h0a25.85,25.85,0,0,0-25.85,25.85Z"/><path class="cls-8" d="M109.41,112.1a11.74,11.74,0,1,1-11.74-11.74A11.73,11.73,0,0,1,109.41,112.1Z"/><path class="cls-8" d="M80,157.69h36.37V144.26a18.19,18.19,0,0,0-18.18-18.19h0A18.19,18.19,0,0,0,80,144.26Z"/><rect class="cls-9" x="134.42" y="10.93" width="40.67" height="28.12" rx="6.82"/><path class="cls-10" d="M156,17.78a7.64,7.64,0,0,0,2.52,6.43,10.39,10.39,0,0,0,8.35,1.73c3.36-.68,6-2.74,5.92-6.28-.05-5.84-5-6.06-9.61-6.13-2.24,0-5.22.17-6.52,2.3A4.91,4.91,0,0,0,156,17.78Z"/><path class="cls-11" d="M152.69,34.57c-5-1.62-9-5.24-10.2-10.5a14.22,14.22,0,0,1,.54-8.65,27.31,27.31,0,0,1,2.49-4.49h-4.28a6.82,6.82,0,0,0-6.82,6.82V32.23a6.82,6.82,0,0,0,6.82,6.82h27a6.82,6.82,0,0,0,6.82-6.82V28.56C170.27,35.28,160.24,37,152.69,34.57Z"/><polygon class="cls-12" points="141.24 39.05 139.96 45.03 148.96 39.05 141.24 39.05"/><polygon class="cls-11" points="141.24 39.05 139.96 45.03 148.96 39.05 141.24 39.05"/><path class="cls-8" d="M148.62,25A1.62,1.62,0,1,1,147,23.37,1.62,1.62,0,0,1,148.62,25Z"/><path class="cls-8" d="M156.38,25a1.62,1.62,0,1,1-1.62-1.62A1.61,1.61,0,0,1,156.38,25Z"/><path class="cls-8" d="M164.15,25a1.63,1.63,0,1,1-1.63-1.62A1.62,1.62,0,0,1,164.15,25Z"/><path class="cls-2" d="M152,24a58.4,58.4,0,0,0-20.16,3.57A76.77,76.77,0,1,0,31.51,143.06a58.69,58.69,0,0,0,115.65-1.87c1.61.14,3.24.22,4.88.22A58.69,58.69,0,1,0,152,24Z"/></g></g></g></svg>