<svg xmlns="http://www.w3.org/2000/svg" viewBox="0 0 536.65 80.29"><defs><style>.cls-1{isolation:isolate;}.cls-2{font-size:20px;fill:#22242b;font-family:Montserrat-SemiBold, Montserrat;font-weight:600;}.cls-3{letter-spacing:-0.01em;}.cls-4{letter-spacing:-0.01em;}.cls-5{letter-spacing:0.01em;}.cls-6{letter-spacing:-0.02em;}.cls-7{letter-spacing:0em;}.cls-8{letter-spacing:-0.01em;}.cls-9{letter-spacing:0em;}.cls-10{letter-spacing:-0.01em;}.cls-11{fill:#591878;opacity:0.5;}.cls-11,.cls-13{mix-blend-mode:multiply;}.cls-12,.cls-13{fill:#ffcf17;}.cls-13{opacity:0.8;}.cls-14{fill:#fff;}</style></defs><g class="cls-1"><g id="Layer_2" data-name="Layer 2"><g id="Texto"><text class="cls-2" transform="translate(39.08 20.99)">Al <tspan class="cls-3" x="26.28" y="0">r</tspan><tspan x="34.48" y="0">egist</tspan><tspan class="cls-4" x="85.36" y="0">r</tspan><tspan x="93.6" y="0">a</tspan><tspan class="cls-5" x="105.74" y="0">r</tspan><tspan class="cls-6" x="114.44" y="0">t</tspan><tspan x="122.56" y="0">e </tspan><tspan class="cls-7" x="140.52" y="0">a</tspan><tspan class="cls-4" x="152.76" y="0">c</tspan><tspan x="164.22" y="0">eptas nuest</tspan><tspan class="cls-4" x="285.36" y="0">r</tspan><tspan x="293.6" y="0">as </tspan><tspan class="cls-4" x="321.56" y="0">c</tspan><tspan x="333.02" y="0">o</tspan><tspan class="cls-7" x="345.92" y="0">n</tspan><tspan x="359.72" y="0">dicio</tspan><tspan class="cls-7" x="409.54" y="0">n</tspan><tspan x="423.33" y="0">es, a la </tspan><tspan class="cls-8" x="41.23" y="27">P</tspan><tspan x="55.51" y="27">olítica de da</tspan><tspan class="cls-6" x="181.09" y="27">t</tspan><tspan class="cls-9" x="189.21" y="27">os y la </tspan><tspan class="cls-8" x="258.45" y="27">P</tspan><tspan class="cls-9" x="272.73" y="27">olítica de </tspan><tspan class="cls-4" x="372.42" y="27">c</tspan><tspan x="383.88" y="27">oo</tspan><tspan class="cls-10" x="409.68" y="27">k</tspan><tspan class="cls-9" x="422.3" y="27">ies </tspan></text><path class="cls-11" d="M22.28,6.08a11.25,11.25,0,0,0-8-3.2,11.19,11.19,0,0,0-8,3.2,10.21,10.21,0,0,0-3.35,7.67,10.1,10.1,0,0,0,1.88,6h0a12.65,12.65,0,0,0,1.47,1.67,11.14,11.14,0,0,0,8,3.19,11.2,11.2,0,0,0,8-3.19,10.29,10.29,0,0,0,3.35-7.67A10.28,10.28,0,0,0,22.28,6.08Z"/><path class="cls-12" d="M11.37,21.74a11.23,11.23,0,0,0,8-3.2,10.28,10.28,0,0,0,3.35-7.67A10.28,10.28,0,0,0,19.4,3.2a11.23,11.23,0,0,0-8-3.2,11.23,11.23,0,0,0-8,3.2A10.24,10.24,0,0,0,0,10.87a10.27,10.27,0,0,0,3.34,7.68A11.26,11.26,0,0,0,11.37,21.74Z"/><path class="cls-13" d="M11.37,21.74a11.23,11.23,0,0,0,8-3.2,10.28,10.28,0,0,0,3.35-7.67A10.28,10.28,0,0,0,19.4,3.2a12.32,12.32,0,0,0-1.06-.85,10.13,10.13,0,0,1,1.9,6A10.24,10.24,0,0,1,16.89,16a11.22,11.22,0,0,1-8,3.2,11.26,11.26,0,0,1-7-2.36,12.1,12.1,0,0,0,1.47,1.69A11.26,11.26,0,0,0,11.37,21.74Z"/><path class="cls-14" d="M6.45,3.16C6.23,3.33,1,7.3,2.78,12.57a1.71,1.71,0,0,0,2.13,1.07A1.68,1.68,0,0,0,6,11.51c-1-3,2.45-5.64,2.5-5.68a1.67,1.67,0,0,0-2-2.67Z"/></g></g></g></svg>