<svg xmlns="http://www.w3.org/2000/svg" viewBox="0 0 656.25 91.03"><defs><style>.cls-1{isolation:isolate;}.cls-2,.cls-3,.cls-4{mix-blend-mode:multiply;}.cls-3{fill:#c6c6c5;opacity:0.7;}.cls-4{opacity:0.5;}.cls-5{fill:#591878;}.cls-6{fill:#ffc200;}.cls-7{mix-blend-mode:screen;}.cls-8{fill:#fffa9e;}.cls-9{font-size:28.32px;fill:#fff;font-family:Montserrat-SemiBold, Montserrat;font-weight:600;}.cls-10{letter-spacing:-0.06em;}.cls-11{letter-spacing:-0.01em;}.cls-12{letter-spacing:0em;}.cls-13{letter-spacing:-0.04em;}.cls-14{letter-spacing:-0.02em;}.cls-15{letter-spacing:0em;}.cls-16{letter-spacing:-0.03em;}.cls-17{letter-spacing:-0.07em;}</style></defs><g class="cls-1"><g id="Layer_2" data-name="Layer 2"><g id="Texto"><g class="cls-2"><rect class="cls-3" x="12.76" width="643.49" height="67.25" rx="14.01"/></g><g class="cls-4"><path class="cls-5" d="M46.47,25.11c2.17-1.44,3.88-.5,3.84,2.09l-.25,15.46a10.72,10.72,0,0,0,3.61,7.63l12.18,9.58c2.05,1.6,1.67,3.54-.81,4.29L50.26,68.68a10.64,10.64,0,0,0-6.15,5.8L38.78,89c-.92,2.43-2.85,2.69-4.36.56L25.57,76.92a10.76,10.76,0,0,0-7.43-4L2.67,72.29c-2.62-.1-3.44-1.87-1.88-4L10.09,56a10.69,10.69,0,0,0,1.54-8.3L7.44,32.79c-.71-2.5.71-3.84,3.16-3l14.61,5a10.76,10.76,0,0,0,8.39-1.09Z"/></g><path class="cls-6" d="M55.17,16.41c2.17-1.44,3.88-.5,3.84,2.1L58.75,34a10.73,10.73,0,0,0,3.6,7.63l12.2,9.58c2,1.61,1.67,3.54-.82,4.29L59,60a10.67,10.67,0,0,0-6.14,5.81L47.47,80.34c-.91,2.43-2.85,2.68-4.35.55L34.27,68.22a10.78,10.78,0,0,0-7.42-4L11.36,63.6c-2.61-.11-3.44-1.87-1.88-4l9.3-12.36A10.69,10.69,0,0,0,20.33,39l-4.21-14.9c-.69-2.49.72-3.84,3.17-3l14.63,5.05A10.77,10.77,0,0,0,42.29,25Z"/><g class="cls-7"><path class="cls-8" d="M53,19.23,41.65,26.85a8.43,8.43,0,0,1-6.38.83L22.36,23.23a3.49,3.49,0,0,0-3.64.46,3.53,3.53,0,0,0-.7,3.62l3.75,13.16a8.3,8.3,0,0,1-1.19,6.31L12.35,57.7a3.4,3.4,0,0,0-.68,3.62,3.39,3.39,0,0,0,3.23,1.76l13.69.52a8.41,8.41,0,0,1,5.64,3.06l7.84,11.21a3.51,3.51,0,0,0,3.23,1.76A3.42,3.42,0,0,0,48,77.1l4.7-12.85a8.4,8.4,0,0,1,4.66-4.41l13.08-4a3.55,3.55,0,0,0,2.68-2.52A3.52,3.52,0,0,0,71.54,50L60.76,41.54A8.41,8.41,0,0,1,58,35.74l.24-13.66c0-2.14-1-3-1.62-3.33S54.78,18,53,19.23Zm2.52,1.6c.18.1.37.51.35,1.21L55.65,35.7a10.69,10.69,0,0,0,3.65,7.69l10.77,8.47c.53.42.74.82.71,1s-.39.5-1,.7l-13.08,4a10.68,10.68,0,0,0-6.2,5.86L45.77,76.29c-.24.66-.56,1-.77,1s-.61-.19-1-.76l-7.84-11.2a10.6,10.6,0,0,0-7.48-4.08L15,60.72c-.71,0-1.11-.22-1.2-.41s0-.64.43-1.19L22.47,48.2A10.61,10.61,0,0,0,24,39.83L20.3,26.67c-.19-.66-.11-1.11,0-1.25s.59-.18,1.24,0l12.92,4.45a10.6,10.6,0,0,0,8.45-1.1l11.38-7.63h0C54.91,20.8,55.35,20.72,55.53,20.83Z"/></g><text class="cls-9" transform="translate(77.14 40.21)"><tspan class="cls-10">¿</tspan><tspan class="cls-11" x="14.75" y="0">T</tspan><tspan class="cls-12" x="31.52" y="0">O</tspan><tspan class="cls-11" x="55.36" y="0">D</tspan><tspan class="cls-13" x="78.47" y="0">A</tspan><tspan class="cls-14" x="98.63" y="0">V</tspan><tspan x="118.85" y="0">ÍA NO TIENES UNA </tspan><tspan class="cls-15" x="398.39" y="0">C</tspan><tspan x="418.84" y="0">UEN</tspan><tspan class="cls-16" x="483.09" y="0">T</tspan><tspan class="cls-17" x="499.14" y="0">A</tspan><tspan x="518.37" y="0">?</tspan></text></g></g></g></svg>