<svg xmlns="http://www.w3.org/2000/svg" viewBox="0 0 36.21 36.2"><defs><style>.cls-1{fill:#2ec5f9;}</style></defs><g id="Layer_2" data-name="Layer 2"><g id="Texto"><path class="cls-1" d="M36.21,18.11A18.11,18.11,0,1,1,18.1,0,18.09,18.09,0,0,1,36.21,18.11ZM12.76,14.17v4h2.42V29.78h4.68V18.09h3.25l.35-3.91H20.08c-.12,0-.23,0-.23-.16,0-.85,0-1.7,0-2.55,0-.55.32-.79.87-.81h2.69V6.6h-.17c-1.05,0-2.1,0-3.15,0a12.22,12.22,0,0,0-1.72.17A3.57,3.57,0,0,0,15.27,10a22.38,22.38,0,0,0-.09,2.46c0,.56,0,1.12,0,1.7Z"/></g></g></svg>