<svg xmlns="http://www.w3.org/2000/svg" xmlns:xlink="http://www.w3.org/1999/xlink" viewBox="0 0 199.86 191.86"><defs><style>.cls-1{isolation:isolate;}.cls-2,.cls-3{fill:#e3e0ff;}.cls-2,.cls-3,.cls-4{fill-rule:evenodd;}.cls-2,.cls-7{mix-blend-mode:multiply;}.cls-4{fill:#fff;}.cls-5,.cls-7{fill:#3fb2ce;}.cls-6{fill:url(#Degradado_sin_nombre_143);}.cls-7{opacity:0.3;}.cls-8{fill:none;stroke:#fff;stroke-miterlimit:10;stroke-width:3px;}.cls-9{fill:url(#Degradado_sin_nombre_143-2);}</style><linearGradient id="Degradado_sin_nombre_143" x1="41.5" y1="125.69" x2="122.97" y2="125.69" gradientUnits="userSpaceOnUse"><stop offset="0" stop-color="#602fda"/><stop offset="1" stop-color="#7e4fd6"/></linearGradient><linearGradient id="Degradado_sin_nombre_143-2" x1="102.16" y1="30.94" x2="142.78" y2="30.94" xlink:href="#Degradado_sin_nombre_143"/></defs><g class="cls-1"><g id="Layer_2" data-name="Layer 2"><g id="Texto"><path class="cls-2" d="M127.12,9.62A72.22,72.22,0,0,0,86.5,22.07,62.73,62.73,0,0,0,8.87,106.36a55.42,55.42,0,0,0,46.63,85.5,55.65,55.65,0,0,0,53-39.17A72.74,72.74,0,1,0,127.12,9.62Z"/><path class="cls-2" d="M127.12,9.62A72.22,72.22,0,0,0,86.5,22.07,62.73,62.73,0,0,0,8.87,106.36a55.42,55.42,0,0,0,46.63,85.5,55.65,55.65,0,0,0,53-39.17A72.74,72.74,0,1,0,127.12,9.62Z"/><polygon class="cls-3" points="126.5 181.42 123.52 183.14 120.54 184.86 120.54 181.42 120.54 177.98 123.52 179.7 126.5 181.42"/><path class="cls-4" d="M64.71,182.64h0a2.79,2.79,0,1,0,2.79,2.79,2.79,2.79,0,0,0-2.79-2.79m-4.23,4.88a1.39,1.39,0,1,0,1.39,1.38A1.38,1.38,0,0,0,60.48,187.52Z"/><path class="cls-4" d="M172.73,110.27h0a2.79,2.79,0,1,0,2.79-2.79,2.79,2.79,0,0,0-2.79,2.79m4.88,4.22a1.39,1.39,0,1,0,1.39-1.38A1.39,1.39,0,0,0,177.61,114.49Z"/><polygon class="cls-4" points="54.26 41.13 51.28 42.85 48.3 44.57 48.3 41.13 48.3 37.69 51.28 39.41 54.26 41.13"/><polygon class="cls-3" points="85.62 20.59 82.64 18.87 79.66 17.15 82.64 15.43 85.62 13.71 85.62 17.15 85.62 20.59"/><polygon class="cls-3" points="190.84 28.77 189.95 25.44 189.06 22.12 192.38 23.01 195.71 23.9 193.27 26.33 190.84 28.77"/><polygon class="cls-3" points="10.12 73.52 7.14 71.8 4.16 70.08 7.14 68.36 10.12 66.64 10.12 70.08 10.12 73.52"/><path class="cls-5" d="M144.08,130.39c.12-1.55.2-3.11.2-4.7s-.08-3.14-.2-4.69c-10.56-5.94-12.39-12.48-6.18-22.71a61.26,61.26,0,0,0-4.47-7.64c-11.93.45-16.6-4.22-16.16-16.16A63.84,63.84,0,0,0,109.63,70c-10.22,6.21-16.76,4.39-22.7-6.18-1.55-.11-3.12-.19-4.7-.19s-3.14.08-4.7.19C71.59,74.41,65.06,76.23,54.83,70a63.84,63.84,0,0,0-7.64,4.47C47.63,86.43,43,91.1,31,90.65a62.52,62.52,0,0,0-4.47,7.64C32.77,108.52,31,115.06,20.38,121c-.12,1.55-.19,3.11-.19,4.69s.07,3.15.19,4.7c10.57,5.94,12.39,12.48,6.18,22.71A62.52,62.52,0,0,0,31,160.74C43,160.29,47.63,165,47.19,176.9a63.84,63.84,0,0,0,7.64,4.47c10.23-6.21,16.76-4.39,22.7,6.18,1.56.11,3.12.19,4.7.19s3.15-.08,4.7-.19c5.94-10.57,12.48-12.39,22.7-6.18a63.84,63.84,0,0,0,7.64-4.47c-.44-11.94,4.23-16.61,16.16-16.16a61.26,61.26,0,0,0,4.47-7.64C131.69,142.87,133.52,136.33,144.08,130.39ZM82.23,156.65a31,31,0,1,1,31-31A31,31,0,0,1,82.23,156.65Z"/><path class="cls-6" d="M82.23,85A40.74,40.74,0,1,0,123,125.69,40.73,40.73,0,0,0,82.23,85Zm0,71.69a31,31,0,1,1,31-31A31,31,0,0,1,82.23,156.65Z"/><path class="cls-7" d="M144.08,130.39c.12-1.55.2-3.11.2-4.7s-.08-3.14-.2-4.69c-10.56-5.94-12.39-12.48-6.18-22.71a61.26,61.26,0,0,0-4.47-7.64c-11.93.45-16.6-4.22-16.16-16.16A63.84,63.84,0,0,0,109.63,70c-10.22,6.21-16.76,4.39-22.7-6.18-1.55-.11-3.12-.19-4.7-.19s-3.14.08-4.7.19C71.59,74.41,65.06,76.23,54.83,70a63.84,63.84,0,0,0-7.64,4.47C47.63,86.43,43,91.1,31,90.65a62.52,62.52,0,0,0-4.47,7.64C32.77,108.52,31,115.06,20.38,121c-.12,1.55-.19,3.11-.19,4.69s.07,3.15.19,4.7c10.57,5.94,12.39,12.48,6.18,22.71A62.52,62.52,0,0,0,31,160.74C43,160.29,47.63,165,47.19,176.9a63.84,63.84,0,0,0,7.64,4.47c10.23-6.21,16.76-4.39,22.7,6.18,1.56.11,3.12.19,4.7.19s3.15-.08,4.7-.19c5.94-10.57,12.48-12.39,22.7-6.18a63.84,63.84,0,0,0,7.64-4.47c-.44-11.94,4.23-16.61,16.16-16.16a61.26,61.26,0,0,0,4.47-7.64C131.69,142.87,133.52,136.33,144.08,130.39ZM82.23,179.32a53.63,53.63,0,1,1,53.63-53.63A53.62,53.62,0,0,1,82.23,179.32Z"/><path class="cls-8" d="M127.18,134.58a45.7,45.7,0,0,1-4.2,12.07"/><path class="cls-8" d="M82.23,79.89A45.81,45.81,0,0,1,128,125.69"/><path class="cls-5" d="M153.31,33.28c.06-.78.1-1.55.1-2.34s0-1.57-.1-2.35c-5.27-3-6.18-6.22-3.08-11.32A30.84,30.84,0,0,0,148,13.46c-5.95.23-8.28-2.1-8.06-8a30.72,30.72,0,0,0-3.8-2.23C131,6.27,127.78,5.37,124.82.1,124,0,123.26,0,122.47,0s-1.57,0-2.34.1c-3,5.27-6.22,6.17-11.32,3.08A30.12,30.12,0,0,0,105,5.41c.22,5.95-2.11,8.28-8.06,8.05a30.77,30.77,0,0,0-2.22,3.81c3.09,5.1,2.18,8.36-3.09,11.32,0,.78-.09,1.56-.09,2.35s0,1.56.09,2.34c5.27,3,6.18,6.22,3.08,11.32a32.15,32.15,0,0,0,2.23,3.81c6-.22,8.28,2.11,8.06,8.05a30.12,30.12,0,0,0,3.81,2.23c5.1-3.09,8.36-2.19,11.32,3.09.77,0,1.55.09,2.34.09s1.57,0,2.35-.09c3-5.28,6.22-6.18,11.32-3.09a30.72,30.72,0,0,0,3.8-2.23c-.22-5.94,2.11-8.27,8.06-8.05a30.84,30.84,0,0,0,2.23-3.81C147.13,39.5,148,36.24,153.31,33.28ZM122.47,46.37A15.44,15.44,0,1,1,137.9,30.94,15.43,15.43,0,0,1,122.47,46.37Z"/><path class="cls-9" d="M122.47,10.62a20.32,20.32,0,1,0,20.31,20.32A20.32,20.32,0,0,0,122.47,10.62Zm0,35.75A15.44,15.44,0,1,1,137.9,30.94,15.43,15.43,0,0,1,122.47,46.37Z"/><path class="cls-7" d="M153.31,33.28c.06-.78.1-1.55.1-2.34s0-1.57-.1-2.35c-5.27-3-6.18-6.22-3.08-11.32A30.84,30.84,0,0,0,148,13.46c-5.95.23-8.28-2.1-8.06-8a30.72,30.72,0,0,0-3.8-2.23C131,6.27,127.78,5.37,124.82.1,124,0,123.26,0,122.47,0s-1.57,0-2.34.1c-3,5.27-6.22,6.17-11.32,3.08A30.12,30.12,0,0,0,105,5.41c.22,5.95-2.11,8.28-8.06,8.05a30.77,30.77,0,0,0-2.22,3.81c3.09,5.1,2.18,8.36-3.09,11.32,0,.78-.09,1.56-.09,2.35s0,1.56.09,2.34c5.27,3,6.18,6.22,3.08,11.32a32.15,32.15,0,0,0,2.23,3.81c6-.22,8.28,2.11,8.06,8.05a30.12,30.12,0,0,0,3.81,2.23c5.1-3.09,8.36-2.19,11.32,3.09.77,0,1.55.09,2.34.09s1.57,0,2.35-.09c3-5.28,6.22-6.18,11.32-3.09a30.72,30.72,0,0,0,3.8-2.23c-.22-5.94,2.11-8.27,8.06-8.05a30.84,30.84,0,0,0,2.23-3.81C147.13,39.5,148,36.24,153.31,33.28ZM122.47,57.67a26.74,26.74,0,1,1,26.74-26.73A26.73,26.73,0,0,1,122.47,57.67Z"/><path class="cls-8" d="M144.88,35.37a22.55,22.55,0,0,1-2.09,6"/><path class="cls-8" d="M122.47,8.1a22.83,22.83,0,0,1,22.84,22.84"/></g></g></g></svg>