<svg xmlns="http://www.w3.org/2000/svg" viewBox="0 0 668.48 29.77"><defs><style>.cls-1{font-size:27px;font-family:Dosis-SemiBold, Dosis;font-weight:600;letter-spacing:-0.03em;}.cls-1,.cls-2{fill:#fff;}</style></defs><g id="Layer_2" data-name="Layer 2"><g id="Texto"><text class="cls-1" transform="translate(326.48 23.37)">o</text><path class="cls-2" d="M309.48,16.63c-12.9.22-25.79.32-38.69.48l-38.68.28c-25.79.17-51.58.15-77.37.24L77.37,17.4l-38.69-.28C25.79,17,12.89,16.85,0,16.63c12.89-.23,25.79-.33,38.68-.49l38.69-.28,77.37-.23c25.79.08,51.58.07,77.37.23l38.68.28C283.69,16.3,296.58,16.4,309.48,16.63Z"/><path class="cls-2" d="M668.48,16.63c-12.9.22-25.79.32-38.69.48l-38.68.28c-25.79.17-51.58.15-77.37.24l-77.37-.23-38.69-.28c-12.89-.17-25.79-.27-38.68-.49,12.89-.23,25.79-.33,38.68-.49l38.69-.28,77.37-.23c25.79.08,51.58.07,77.37.23l38.68.28C642.69,16.3,655.58,16.4,668.48,16.63Z"/></g></g></svg>