<svg xmlns="http://www.w3.org/2000/svg" xmlns:xlink="http://www.w3.org/1999/xlink" viewBox="0 0 220.73 213.03"><defs><style>.cls-1{isolation:isolate;}.cls-2,.cls-3{fill:#e3e0ff;}.cls-2,.cls-3,.cls-4{fill-rule:evenodd;}.cls-2,.cls-7{mix-blend-mode:multiply;}.cls-4{fill:#fff;}.cls-5{fill:none;stroke:#3fb2ce;stroke-miterlimit:10;stroke-width:8px;}.cls-6{fill:url(#Degradado_sin_nombre_143);}.cls-7{fill:#ccc;}.cls-8{fill:url(#Degradado_sin_nombre_143-2);}.cls-9{fill:#3fb2ce;}</style><linearGradient id="Degradado_sin_nombre_143" x1="49.6" y1="113.72" x2="196" y2="113.72" gradientUnits="userSpaceOnUse"><stop offset="0" stop-color="#602fda"/><stop offset="1" stop-color="#7e4fd6"/></linearGradient><linearGradient id="Degradado_sin_nombre_143-2" x1="46.46" y1="87.68" x2="199.14" y2="87.68" xlink:href="#Degradado_sin_nombre_143"/></defs><g class="cls-1"><g id="Layer_2" data-name="Layer 2"><g id="Texto"><path class="cls-2" d="M203.69,119.73A72.94,72.94,0,1,0,75.57,62.41c-1.61-.11-3.23-.19-4.87-.19a70.7,70.7,0,1,0,48.37,122.17,54,54,0,1,0,84.62-64.66Z"/><path class="cls-3" d="M124.38,201.29a2.58,2.58,0,1,0-2.58-2.58,2.59,2.59,0,0,0,2.58,2.58"/><polygon class="cls-3" points="41.66 202.03 41.66 198.51 41.66 194.99 38.62 196.75 35.57 198.51 38.62 200.27 41.66 202.03"/><polygon class="cls-4" points="142.1 33.03 142.1 29.51 142.1 26 139.05 27.75 136.01 29.51 139.05 31.27 142.1 33.03"/><path class="cls-3" d="M24.17,57.11a2.59,2.59,0,1,0-2.58-2.59,2.59,2.59,0,0,0,2.58,2.59"/><polygon class="cls-3" points="61.69 40.12 61.69 36.61 61.69 33.09 58.64 34.85 55.6 36.61 58.64 38.36 61.69 40.12"/><polygon class="cls-4" points="153.22 91.31 153.22 87.79 153.22 84.27 150.17 86.03 147.13 87.79 150.17 89.55 153.22 91.31"/><path class="cls-5" d="M144,58.83V41.9a4.19,4.19,0,0,0-4.19-4.19h-34a4.18,4.18,0,0,0-4.18,4.19V58.83Z"/><rect class="cls-6" x="49.6" y="59.48" width="146.41" height="108.47" rx="6.57"/><path class="cls-7" d="M66.8,159.86a6.57,6.57,0,0,1-6.57-6.57v-19.8a6.57,6.57,0,0,1,6.57-6.57H196V66.05a6.57,6.57,0,0,0-6.57-6.57H56.16a6.57,6.57,0,0,0-6.56,6.57v95.33A6.57,6.57,0,0,0,56.16,168H189.43a6.57,6.57,0,0,0,6.57-6.57v-1.52Z"/><rect class="cls-8" x="46.46" y="53.41" width="152.68" height="68.53" rx="6.85"/><path class="cls-7" d="M197,109.34c-4.84,6-11,5.87-18.27,5.85-28.2-.08-26.58-.17-50.75-.08-14.36,0-23.26,0-36.71-5.66S72.67,90.83,72.83,76.77a53.19,53.19,0,0,1,4.86-22.56c.13-.27.28-.53.41-.8H53.31a6.85,6.85,0,0,0-6.85,6.85v54.83a6.85,6.85,0,0,0,6.85,6.85h139a6.85,6.85,0,0,0,6.85-6.85V106.3A32.62,32.62,0,0,1,197,109.34Z"/><rect class="cls-9" x="113.34" y="119.51" width="18.91" height="15.94"/></g></g></g></svg>